# Blender v2.80 (sub 75) OBJ File: 'Bush3.1.blend'
# www.blender.org
mtllib Bush3.1.mtl
o Bush3.1_Cylinder
v -0.009330 -0.506394 -0.061183
v -0.009330 0.004600 -0.061183
v 0.032715 -0.506394 -0.043768
v 0.032715 0.004600 -0.043768
v 0.050130 -0.506394 -0.001723
v 0.050130 0.004600 -0.001723
v 0.032715 -0.506394 0.040322
v 0.032715 0.004600 0.040322
v -0.009330 -0.506394 0.057737
v -0.009330 0.004600 0.057737
v -0.051374 -0.506394 0.040322
v -0.051374 0.004600 0.040322
v -0.068790 -0.506394 -0.001723
v -0.068790 0.004600 -0.001723
v -0.051374 -0.506394 -0.043768
v -0.051374 0.004600 -0.043768
v -0.064192 -0.324642 0.023761
v 0.433672 -0.004196 0.308660
v -0.212198 -0.069290 0.606970
v -0.598667 0.063427 0.122589
v -0.101828 -0.031074 -0.556076
v 0.433672 -0.031074 -0.382078
v 0.194185 0.365492 0.482658
v -0.396823 0.498208 0.279804
v -0.396823 0.498208 -0.283250
v 0.194185 0.338615 -0.556076
v 0.525145 0.365490 0.027133
v 0.046178 0.593966 0.027133
v -0.151187 -0.236037 0.419194
v 0.273939 -0.197821 0.064925
v 0.186945 -0.036649 0.460361
v 0.501702 -0.063526 -0.100551
v 0.273939 -0.197821 -0.266027
v -0.401229 -0.103320 0.122589
v -0.488226 0.030973 0.390338
v -0.151187 -0.236037 -0.116303
v -0.488226 0.004096 -0.272845
v 0.186945 -0.063527 -0.533779
v 0.555472 0.180648 0.192610
v 0.555472 0.153770 -0.266028
v 0.046178 0.180648 0.562635
v 0.360939 0.180648 0.460364
v -0.518623 0.313363 0.163754
v -0.324090 0.313363 0.431507
v -0.324090 0.313363 -0.434953
v -0.518623 0.313363 -0.167200
v 0.360939 0.153770 -0.533781
v 0.046178 0.153770 -0.636053
v 0.414705 0.397944 0.294883
v -0.150096 0.530661 0.431504
v -0.464853 0.530660 -0.001723
v -0.150096 0.530661 -0.434950
v 0.414705 0.371067 -0.368301
v 0.133174 0.532239 0.294882
v 0.327708 0.532238 0.027133
v -0.237091 0.664955 0.163753
v -0.237091 0.664955 -0.167199
v 0.133174 0.532239 -0.240615
v -0.009330 -0.375531 -0.038819
v 0.016901 -0.375531 -0.027954
v 0.027766 -0.375531 -0.001723
v 0.016901 -0.375531 0.024508
v -0.009330 -0.375531 0.035373
v -0.035560 -0.375531 0.024508
v -0.046425 -0.375531 -0.001723
v -0.035560 -0.375531 -0.027954
vn 0.3087 -0.9114 0.2721
vn 0.6060 -0.7667 0.2119
vn -0.5327 -0.8433 0.0718
vn -0.5734 -0.8049 -0.1530
vn -0.0945 -0.8668 -0.4896
vn 0.8717 -0.4431 0.2092
vn 0.3522 -0.2020 0.9139
vn -0.8919 0.2207 0.3947
vn -0.5941 -0.1028 -0.7978
vn 0.5158 -0.4130 -0.7506
vn 0.7983 -0.1619 0.5800
vn -0.1934 0.3617 0.9120
vn -0.9524 0.3050 0.0000
vn -0.4768 0.0014 -0.8790
vn 0.7983 -0.1619 -0.5800
vn 0.3591 0.7527 0.5518
vn -0.4138 0.7527 0.5120
vn -0.6148 0.7527 -0.2353
vn 0.3068 0.8365 -0.4541
vn 0.6362 0.7533 -0.1671
vn 0.2116 0.9652 -0.1538
vn 0.3801 0.8828 -0.2762
vn 0.2717 0.8427 -0.4647
vn 0.3149 0.9421 -0.1149
vn 0.2480 0.8958 -0.3687
vn -0.4138 0.7527 -0.5120
vn 0.2431 0.9700 0.0000
vn -0.5079 0.8614 0.0000
vn -0.6148 0.7527 0.2353
vn 0.2963 0.9473 0.1221
vn 0.1841 0.9013 0.3922
vn 0.2782 0.7613 0.5857
vn 0.2116 0.9652 0.1538
vn 0.4109 0.8614 0.2985
vn 0.6357 0.7527 0.1710
vn 0.8625 0.4484 -0.2346
vn 0.7853 0.2402 -0.5706
vn 0.5544 0.4130 -0.7225
vn -0.0683 0.4417 -0.8945
vn -0.3586 0.2872 -0.8882
vn -0.5158 0.4130 -0.7506
vn -0.8732 0.4130 -0.2586
vn -0.9707 0.2402 0.0000
vn -0.8732 0.4130 0.2586
vn -0.5158 0.4130 0.7506
vn -0.2595 0.2078 0.9431
vn 0.0396 0.3699 0.9282
vn 0.5544 0.4130 0.7225
vn 0.7853 0.2402 0.5706
vn 0.8585 0.4130 0.3040
vn 0.3049 0.1619 -0.9385
vn 0.3000 -0.2402 -0.9232
vn 0.0239 -0.4130 -0.9104
vn -0.7983 0.1619 -0.5800
vn -0.8031 0.1204 -0.5835
vn -0.9633 -0.0029 -0.2686
vn -0.7983 0.1619 0.5800
vn -0.7551 0.3589 0.5486
vn -0.5567 0.2062 0.8047
vn 0.3049 0.1619 0.9385
vn 0.3000 -0.2402 0.9232
vn 0.5158 -0.4130 0.7506
vn 0.9880 0.1540 -0.0090
vn 0.9730 -0.2305 0.0135
vn 0.8732 -0.4130 -0.2586
vn 0.4138 -0.7527 -0.5120
vn -0.0701 -0.9006 -0.4289
vn -0.0683 -0.9013 -0.4277
vn -0.3860 -0.8188 -0.4249
vn -0.5437 -0.8325 -0.1065
vn -0.6438 -0.7623 -0.0654
vn -0.6357 -0.7527 0.1710
vn -0.6202 -0.7632 0.1813
vn -0.5843 -0.6917 0.4244
vn 0.6148 -0.7527 -0.2353
vn 0.5079 -0.8614 0.0000
vn 0.3512 -0.9363 0.0000
vn 0.3059 -0.6604 0.6858
vn 0.4224 -0.8031 0.4203
vn 0.3670 -0.8304 0.4192
vn 0.3821 -0.0543 -0.9225
vn 0.9225 -0.0543 -0.3821
vn 0.9225 -0.0543 0.3821
vn 0.3821 -0.0543 0.9225
vn -0.3821 -0.0543 0.9225
vn -0.9225 -0.0543 0.3821
vn 0.0000 1.0000 -0.0000
vn -0.9225 -0.0543 -0.3821
vn -0.3821 -0.0543 -0.9225
vn 0.0000 -1.0000 0.0000
vn -0.3780 0.1560 -0.9126
vn -0.9126 0.1560 -0.3780
vn -0.9126 0.1560 0.3780
vn -0.3780 0.1560 0.9126
vn 0.3780 0.1560 0.9126
vn 0.9126 0.1560 0.3780
vn 0.9126 0.1560 -0.3780
vn 0.3780 0.1560 -0.9126
usemtl Bush
s off
f 17//1 30//1 29//1
f 18//2 30//2 32//2
f 17//3 29//3 34//3
f 17//4 34//4 36//4
f 17//5 36//5 33//5
f 18//6 32//6 39//6
f 19//7 31//7 41//7
f 20//8 35//8 43//8
f 21//9 37//9 45//9
f 22//10 38//10 47//10
f 18//11 39//11 42//11
f 19//12 41//12 44//12
f 20//13 43//13 46//13
f 21//14 45//14 48//14
f 22//15 47//15 40//15
f 23//16 49//16 54//16
f 24//17 50//17 56//17
f 25//18 51//18 57//18
f 26//19 52//19 58//19
f 27//20 53//20 55//20
f 55//21 58//21 28//21
f 55//22 53//22 58//22
f 53//23 26//23 58//23
f 58//24 57//24 28//24
f 58//25 52//25 57//25
f 52//26 25//26 57//26
f 57//27 56//27 28//27
f 57//28 51//28 56//28
f 51//29 24//29 56//29
f 56//30 54//30 28//30
f 56//31 50//31 54//31
f 50//32 23//32 54//32
f 54//33 55//33 28//33
f 54//34 49//34 55//34
f 49//35 27//35 55//35
f 40//36 53//36 27//36
f 40//37 47//37 53//37
f 47//38 26//38 53//38
f 48//39 52//39 26//39
f 48//40 45//40 52//40
f 45//41 25//41 52//41
f 46//42 51//42 25//42
f 46//43 43//43 51//43
f 43//44 24//44 51//44
f 44//45 50//45 24//45
f 44//46 41//46 50//46
f 41//47 23//47 50//47
f 42//48 49//48 23//48
f 42//49 39//49 49//49
f 39//50 27//50 49//50
f 47//51 48//51 26//51
f 47//52 38//52 48//52
f 38//53 21//53 48//53
f 45//54 46//54 25//54
f 45//55 37//55 46//55
f 37//56 20//56 46//56
f 43//57 44//57 24//57
f 43//58 35//58 44//58
f 35//59 19//59 44//59
f 41//60 42//60 23//60
f 41//61 31//61 42//61
f 31//62 18//62 42//62
f 39//63 40//63 27//63
f 39//64 32//64 40//64
f 32//65 22//65 40//65
f 33//66 38//66 22//66
f 33//67 36//67 38//67
f 36//68 21//68 38//68
f 36//69 37//69 21//69
f 36//70 34//70 37//70
f 34//71 20//71 37//71
f 34//72 35//72 20//72
f 34//73 29//73 35//73
f 29//74 19//74 35//74
f 32//75 33//75 22//75
f 32//76 30//76 33//76
f 30//77 17//77 33//77
f 29//78 31//78 19//78
f 29//79 30//79 31//79
f 30//80 18//80 31//80
usemtl Stick
f 59//81 2//81 4//81 60//81
f 60//82 4//82 6//82 61//82
f 61//83 6//83 8//83 62//83
f 62//84 8//84 10//84 63//84
f 63//85 10//85 12//85 64//85
f 64//86 12//86 14//86 65//86
f 4//87 2//87 16//87 14//87 12//87 10//87 8//87 6//87
f 65//88 14//88 16//88 66//88
f 66//89 16//89 2//89 59//89
f 1//90 3//90 5//90 7//90 9//90 11//90 13//90 15//90
f 15//91 66//91 59//91 1//91
f 13//92 65//92 66//92 15//92
f 11//93 64//93 65//93 13//93
f 9//94 63//94 64//94 11//94
f 7//95 62//95 63//95 9//95
f 5//96 61//96 62//96 7//96
f 3//97 60//97 61//97 5//97
f 1//98 59//98 60//98 3//98
