# Blender v2.80 (sub 75) OBJ File: ''
# www.blender.org
mtllib rock1.mtl
o Rock_10_Siatka
v -0.606766 -0.141328 0.870976
v 1.282831 1.223754 -0.406176
v 1.916842 0.071706 0.472065
v -0.223273 0.420844 1.152625
v -0.069660 0.561233 -1.251264
v -0.884452 0.947546 -0.108182
v -0.507944 -0.121736 -0.926448
v 1.021683 0.035872 1.032935
v -0.421221 0.878106 0.947316
v 1.114967 -0.125712 -1.232338
v -0.610015 -0.125297 1.043593
v -0.695088 0.102710 1.047497
v -1.018900 0.319280 0.856750
v -1.092672 -0.165960 0.430237
v 1.136454 1.073393 -0.863799
v 0.628439 1.291404 -1.038844
v 0.410159 1.390599 -0.610404
v 0.741887 1.362273 -0.186498
v 1.939535 0.081594 0.216696
v 2.212408 0.048958 -0.079759
v 2.068164 0.394269 0.138383
v 1.957914 0.241313 0.572962
v 1.700115 0.088439 0.607261
v 0.374786 0.358604 1.248638
v 0.677560 0.808986 1.065400
v 0.380671 1.075670 0.775786
v -0.077055 0.977171 0.807981
v -0.241654 0.992435 1.027467
v -0.085123 1.083635 -1.110986
v 0.621342 1.286241 -1.048133
v 0.748478 0.534198 -1.396605
v -0.622396 0.924110 -0.046727
v -0.394089 1.213222 -0.534498
v -0.487107 1.092164 -0.804026
v -0.961910 0.382402 -0.656042
v -0.529786 -0.086880 -0.655575
v -1.051414 -0.139329 -0.307355
v -0.963267 0.371087 -0.659945
v -0.621805 0.166079 -1.006799
v 0.374786 0.358604 1.248638
v 0.034189 -0.050394 1.158363
v -0.889433 0.947541 0.206764
v -0.982253 0.498669 0.822712
v 1.211492 0.186619 -1.361205
v 1.411815 0.302469 -1.123901
v 1.848777 -0.060740 -0.858868
vt 0.927527 0.072473
vt 0.572473 0.427527
vt 0.500000 0.373899
vt 0.500000 0.126101
vt 0.653443 -0.000000
vt 0.846557 0.000000
vt 0.903022 1.000000
vt 0.596978 1.000000
vt 0.500000 0.863249
vt 0.500000 0.636751
vt 0.571279 0.571279
vt 0.928721 0.928721
vt 0.393638 0.500000
vt 0.106362 0.500000
vt 0.250000 0.250000
vt 0.250000 0.250000
vt 1.000000 0.146517
vt 1.000000 0.353483
vt 0.928721 0.500000
vt 0.571279 0.500000
vt 1.128549 0.066966
vt 1.123255 0.281046
vt 0.764618 0.219740
vt 0.597126 -0.133677
vt 1.293034 0.000000
vt 0.595464 0.609069
vt 0.414304 0.613926
vt 0.265657 0.358978
vt 0.633065 0.299717
vt 0.689894 0.404128
vt 0.752203 0.500000
vt 1.148854 1.124344
vt 0.895739 1.097224
vt 0.826221 0.764055
vt 1.338730 0.639993
vt 1.295947 1.000000
vt 0.366705 0.214099
vt 0.029856 -0.170189
vt 0.806885 0.000000
vt 0.241191 0.836487
vt 0.773503 1.000000
vt 0.609541 1.160062
vt 0.400828 1.306043
vt 0.147974 0.147974
vt 0.352026 0.352026
vt 0.500000 0.339145
vt 0.500000 0.160855
vt 0.403022 -0.000000
vt 0.096978 0.000000
vt 0.898437 0.337994
vt 0.684935 0.549476
vt 0.638918 0.536753
vt 0.853483 -0.000000
vt 0.925146 0.249113
vt 0.000000 0.846932
vt -0.000000 0.653068
vt 0.160855 0.500000
vt 0.339145 0.500000
vt 0.253016 0.746984
vt 0.246984 0.753016
vt 0.360352 0.639648
vt 0.139648 0.860352
vt 0.500000 0.500000
vt 0.500000 0.500000
vt 0.126786 0.000000
vt 0.373214 0.000000
vt 0.376208 0.247585
vt 0.123792 0.752415
vt 0.000000 0.720703
vt -0.000000 0.279296
vt 0.247156 0.247156
vt 0.252844 0.252844
vt 0.500000 0.106362
vt 0.500000 0.393638
vt 0.379771 0.620229
vt 0.120229 0.879771
vt 0.228606 0.087265
vt 0.821710 0.500000
vt 0.717356 0.700851
vt 0.214713 0.679545
vt 0.427463 0.742975
vt 0.273657 0.663631
vt 0.304248 0.225580
vt 0.837519 0.138856
vt 0.500000 0.252844
vt 0.500000 0.247156
vt 0.646517 0.000000
vt 0.879771 0.879771
vt 0.620229 0.620229
vt 0.636751 0.500000
vt 0.863249 0.500000
vt 1.000000 0.653068
vt 1.000000 0.846932
vt 1.097033 1.220010
vt 0.753381 1.181378
vt 0.564178 0.767484
vt 1.045872 0.724496
vt 1.247585 1.000000
vt 0.161005 0.161005
vt 0.338995 0.338995
vt 0.288486 0.500000
vt 0.211514 0.500000
vt -0.000000 0.287764
vt 0.000000 0.212236
vt 0.153443 0.000000
vt 0.346557 0.000000
vt 0.500000 0.250000
vt 0.500000 0.250000
vt 0.493925 0.821953
vt 0.499703 0.252415
vt 0.649240 0.294998
vt 0.923029 0.500000
vt -0.000000 0.785626
vt 0.000000 0.714374
vt 0.126786 0.873214
vt -0.017101 0.895700
vt -0.330432 0.764137
vt -0.087988 0.080378
vt 0.424473 0.500000
vt 0.072553 0.759402
vt 0.317588 0.390560
vt 0.373214 0.626786
vn 0.1305 -0.9367 0.3251
vn 0.0895 -0.9958 0.0197
vn 0.1073 -0.9914 0.0745
vn 0.0985 -0.9907 0.0939
vn 0.0219 -0.9914 0.1293
vn 0.4518 -0.6175 0.6439
vn 0.3969 0.1042 0.9119
vn 0.3972 0.1970 0.8964
vn 0.7008 -0.6997 -0.1386
vn 0.0000 0.0000 0.0666
vn 0.7061 -0.7050 0.0666
vn 0.0791 -0.9964 -0.0315
vn -0.9367 -0.3498 0.0148
vn -0.6650 -0.5805 0.4698
vn -0.5715 -0.4910 0.6575
vn -0.1759 -0.9829 -0.0537
vn 0.8805 0.0717 0.4686
vn 0.9428 -0.3064 0.1313
vn 0.4162 -0.5372 0.7336
vn 0.1914 -0.9714 0.1404
vn -0.7091 -0.3137 -0.6314
vn -0.7567 -0.4355 -0.4876
vn 0.1472 -0.3285 0.9330
vn 0.4582 -0.0938 -0.8839
vn 0.7827 -0.4282 -0.4517
vn -0.1757 -0.3286 -0.9280
vn -0.9832 0.1820 -0.0155
vn -0.9844 0.1748 -0.0191
vn -0.9804 0.1912 -0.0479
vn 0.5700 0.4381 -0.6951
vn 0.3924 0.4405 -0.8075
vn 0.4620 0.4633 -0.7562
vn 0.4748 0.5636 -0.6760
vn -0.2329 0.9146 -0.3304
vn -0.2051 0.9762 0.0703
vn -0.1911 0.9580 0.2136
vn -0.3081 0.9291 0.2045
vn -0.1515 0.8798 0.4506
vn -0.6746 0.3117 -0.6692
vn -0.5930 0.1924 -0.7819
vn -0.5704 0.2185 -0.7918
vn -0.5688 0.3283 -0.7541
vn 0.4954 0.7724 0.3975
vn 0.4073 0.7384 0.5374
vn 0.4852 0.7903 0.3742
vn 0.3741 0.8410 0.3909
vn -0.1480 0.3951 -0.9066
vn 0.0114 0.2596 -0.9656
vn -0.7883 0.6153 -0.0043
vn -0.8334 0.5520 -0.0264
vn -0.9894 0.1360 -0.0504
vn -0.9852 0.1679 -0.0339
vn 0.7839 0.5308 -0.3219
vn 0.7171 0.5609 -0.4137
vn 0.7529 0.4668 -0.4639
vn 0.8123 0.4249 -0.3995
vn 0.4752 0.7795 -0.4081
vn 0.2127 0.9702 -0.1163
vn 0.2091 0.9729 -0.0986
vn -0.3346 0.1913 0.9227
vn -0.5760 0.8050 0.1422
vn -0.3939 0.2208 0.8922
vn -0.3652 0.2450 0.8981
vn -0.1660 -0.0788 0.9830
vn 0.0000 0.0000 -0.1286
vn 0.9902 0.0550 -0.1286
vn 0.9687 0.0538 0.2423
vn -0.1660 -0.0787 0.9830
vn -0.1659 -0.0787 0.9830
vn -0.0562 0.5364 0.8421
vn 0.7956 0.1539 0.5859
vn 0.0887 0.9961 0.0014
vn 0.2268 0.6617 -0.7146
vn -0.5698 0.7026 0.4262
vn -0.0991 0.4314 0.8967
vn -0.1916 0.6163 0.7639
vn -0.3871 0.8532 -0.3496
vn -0.2403 0.9662 0.0934
vn 0.1098 0.9937 0.0238
usemtl ID_2
s off
f 1/1/1 3/2/1 23/3/1
f 23/3/2 8/4/2 41/5/2
f 1/1/3 23/3/3 41/5/3
f 1/1/4 41/5/4 11/6/4
f 7/7/5 10/8/5 46/9/5
f 46/9/5 20/10/5 19/11/5
f 7/7/5 46/9/5 19/11/5
f 7/7/5 19/11/5 36/12/5
f 8/4/6 23/3/6 22/13/6
f 22/13/7 25/14/7 24/15/7
f 8/4/8 22/13/8 24/15/8
f 8/4/9 24/15/10 40/16/11
f 14/17/12 37/18/12 36/19/12
f 36/19/12 19/20/12 3/2/12
f 14/17/12 36/19/12 3/2/12
f 14/17/12 3/2/12 1/1/12
f 1/21/13 11/22/13 12/23/13
f 1/21/14 12/23/14 13/24/14
f 1/21/15 13/24/15 14/25/15
f 3/26/16 19/27/16 20/28/16
f 3/26/17 20/28/17 21/29/17
f 3/26/18 21/29/18 22/30/18
f 3/26/19 22/30/19 23/31/19
f 7/32/20 36/33/20 37/34/20
f 7/32/21 37/34/21 38/35/21
f 7/32/22 38/35/22 39/36/22
f 8/37/23 40/38/23 41/39/23
f 45/40/24 46/41/24 10/42/24
f 10/42/25 44/43/25 45/40/25
usemtl ID_3
f 39/44/26 5/45/26 31/46/26
f 31/46/26 44/47/26 10/48/26
f 39/44/26 31/46/26 10/48/26
f 39/44/26 10/48/26 7/49/26
f 43/50/27 42/51/27 6/52/27
f 43/50/28 6/52/28 14/53/28
f 13/54/29 43/50/29 14/53/29
f 15/55/30 45/56/30 44/57/30
f 44/57/31 31/58/31 30/59/31
f 15/55/32 44/57/32 30/59/32
f 15/55/33 30/59/33 16/60/33
f 33/61/34 17/62/34 16/60/34
f 16/60/34 30/59/34 29/63/34
f 33/61/34 16/60/34 29/63/34
f 33/61/34 29/63/34 34/64/34
f 32/65/35 27/66/35 26/67/35
f 26/67/36 18/68/36 17/69/36
f 32/65/37 26/67/37 17/69/37
f 32/65/38 17/69/38 33/70/38
f 38/71/39 35/72/39 34/64/39
f 34/64/40 29/63/40 5/45/40
f 38/71/41 34/64/41 5/45/41
f 38/71/42 5/45/42 39/44/42
f 25/73/43 22/74/43 21/75/43
f 21/75/44 2/76/44 18/68/44
f 25/73/45 21/75/45 18/68/45
f 25/73/46 18/68/46 26/67/46
f 30/77/47 31/78/47 5/79/47
f 5/79/48 29/80/48 30/77/48
f 32/81/49 33/82/49 34/83/49
f 34/83/50 35/84/50 32/81/50
f 35/85/51 38/86/51 37/87/51
f 35/85/51 37/87/51 14/53/51
f 6/52/52 35/85/52 14/53/52
usemtl ID_4
f 2/88/53 21/89/53 20/90/53
f 20/90/54 46/91/54 45/92/54
f 2/88/55 20/90/55 45/92/55
f 2/88/56 45/92/56 15/93/56
f 2/94/57 15/95/57 16/96/57
f 2/94/58 16/96/58 17/97/58
f 2/94/59 17/97/59 18/98/59
usemtl ID_5
f 12/99/60 4/100/60 28/101/60
f 28/101/61 9/102/61 43/103/61
f 12/99/62 28/101/62 43/103/62
f 12/99/63 43/103/63 13/104/63
f 11/105/64 41/106/64 40/107/64
f 40/107/65 24/108/66 4/100/67
f 11/105/68 40/107/68 4/100/68
f 11/105/69 4/100/69 12/99/69
f 4/109/70 26/110/70 27/111/70
f 27/111/71 28/112/71 4/109/71
f 6/113/72 42/114/72 32/115/72
f 32/115/73 35/116/73 6/113/73
f 9/117/74 42/118/74 43/119/74
f 4/109/75 24/120/75 25/121/75
f 25/121/76 26/110/76 4/109/76
f 9/102/77 28/101/77 27/122/77
f 9/102/78 27/122/78 32/115/78
f 42/114/79 9/102/79 32/115/79
