# Blender v2.80 (sub 75) OBJ File: 'Low Poly Mill.blend'
# www.blender.org
mtllib Low Poly Mill.mtl
o Mill_Untitled.001
v -0.003425 0.166969 0.026245
v 0.008425 0.429505 -0.012041
v 0.335333 0.166969 -0.152378
v 0.297047 0.429505 -0.164228
v 0.156710 0.166969 -0.491136
v 0.144860 0.429505 -0.452849
v -0.182048 0.166969 -0.312513
v -0.143761 0.429505 -0.300663
v 0.017793 0.439144 -0.042308
v 0.266780 0.439144 -0.173596
v 0.135492 0.439144 -0.422583
v -0.113495 0.439144 -0.291295
v 0.017793 0.784963 -0.042308
v 0.266780 0.784963 -0.173596
v 0.135492 0.784963 -0.422583
v -0.113495 0.784963 -0.291295
v -0.049185 0.784963 -0.169332
v 0.199802 0.784963 -0.300620
v 0.009066 0.794412 -0.014111
v 0.294977 0.794412 -0.164868
v 0.144220 0.794412 -0.450780
v -0.141692 0.794412 -0.300022
v -0.067647 0.949624 -0.159597
v 0.218264 0.949624 -0.310355
v -0.037319 0.182532 -0.041637
v -0.025354 0.339219 -0.055207
v -0.084163 0.182532 -0.130476
v -0.066206 0.339219 -0.132684
v -0.018458 0.180230 -0.051582
v -0.006493 0.336917 -0.065152
v -0.065302 0.180230 -0.140422
v -0.047345 0.336917 -0.142629
v 0.259635 0.454463 -0.187146
v 0.142637 0.454463 -0.409032
v 0.259635 0.769644 -0.187146
v 0.142637 0.769644 -0.409032
v 0.199802 0.769644 -0.300620
v 0.010648 0.454463 -0.055858
v -0.106350 0.454463 -0.277745
v 0.010648 0.769644 -0.055858
v -0.106350 0.769644 -0.277745
v -0.049185 0.769644 -0.169332
v 0.031343 0.454463 -0.049453
v 0.253230 0.454463 -0.166451
v 0.031343 0.769644 -0.049453
v 0.253230 0.769644 -0.166451
v 0.121942 0.454463 -0.415438
v -0.099944 0.454463 -0.298440
v 0.121942 0.769644 -0.415438
v -0.099944 0.769644 -0.298440
v 0.249642 0.454463 -0.181876
v 0.132644 0.454463 -0.403763
v 0.249642 0.769644 -0.181876
v 0.132644 0.769644 -0.403763
v 0.189809 0.769644 -0.295350
v 0.020641 0.454463 -0.061128
v -0.096356 0.454463 -0.283014
v 0.020641 0.769644 -0.061128
v -0.096356 0.769644 -0.283014
v -0.039192 0.769644 -0.174601
v 0.026074 0.454463 -0.059446
v 0.247960 0.454463 -0.176444
v 0.026074 0.769644 -0.059446
v 0.247960 0.769644 -0.176444
v 0.127211 0.454463 -0.405444
v -0.094675 0.454463 -0.288447
v 0.127211 0.769644 -0.405444
v -0.094675 0.769644 -0.288447
vt 0.000000 0.000000
vt 1.000000 0.000000
vt 1.000000 1.000000
vt 0.000000 1.000000
vt 0.000000 0.000000
vt 1.000000 0.000000
vt 1.000000 1.000000
vt 0.000000 1.000000
vt 0.000000 0.000000
vt 1.000000 0.000000
vt 1.000000 1.000000
vt 0.000000 1.000000
vt 0.830180 0.169820
vt 0.831653 0.831653
vt 0.168347 0.831653
vt 0.169820 0.169820
vt 0.931338 0.068662
vt 0.931338 0.508768
vt 0.068662 0.508768
vt 0.068662 0.068662
vt 1.000000 0.000000
vt 1.000000 1.000000
vt 0.000000 1.000000
vt 0.000000 0.000000
vt 1.000000 0.000000
vt 0.931338 0.068662
vt 0.068662 0.068662
vt 0.000000 0.000000
vt 1.000000 1.000000
vt 0.931338 0.931338
vt 0.000000 1.000000
vt 0.068662 0.931338
vt 0.000000 0.000000
vt 1.000000 0.000000
vt 1.000000 1.000000
vt 0.000000 1.000000
vt 0.000000 0.000000
vt 1.000000 0.000000
vt 1.000000 1.000000
vt 0.000000 1.000000
vt 0.000000 0.000000
vt 1.000000 0.000000
vt 1.000000 1.000000
vt 0.000000 1.000000
vt 0.000000 0.000000
vt 1.000000 0.000000
vt 1.000000 1.000000
vt 0.000000 1.000000
vt 0.000000 0.000000
vt 1.000000 0.000000
vt 1.000000 1.000000
vt 0.000000 1.000000
vt 0.000000 0.000000
vt 1.000000 0.000000
vt 1.000000 1.000000
vt 0.000000 1.000000
vt 0.931338 0.931338
vt 0.068662 0.931338
vt 0.000000 0.000000
vt 1.000000 0.000000
vt 1.000000 1.000000
vt 0.000000 1.000000
vt 0.000000 0.000000
vt 1.000000 0.000000
vt 1.000000 1.000000
vt 0.000000 1.000000
vt 0.000000 0.000000
vt 1.000000 0.000000
vt 1.000000 1.000000
vt 0.000000 1.000000
vt 0.931338 0.931338
vt 0.931338 0.508768
vt 0.000000 0.000000
vt 1.000000 0.000000
vt 0.000000 0.000000
vt 1.000000 0.000000
vt 1.000000 1.000000
vt 0.000000 1.000000
vt 0.000000 0.000000
vt 1.000000 0.000000
vt 1.000000 1.000000
vt 0.000000 1.000000
vt 0.000000 0.000000
vt 1.000000 0.000000
vt 1.000000 1.000000
vt 0.000000 1.000000
vt 0.000000 0.000000
vt 1.000000 0.000000
vt 1.000000 1.000000
vt 0.000000 1.000000
vt 0.000000 0.000000
vt 1.000000 0.000000
vt 1.000000 1.000000
vt 0.000000 1.000000
vt 0.000000 0.000000
vt 1.000000 0.000000
vt 1.000000 1.000000
vt 0.000000 1.000000
vt 0.000000 0.000000
vt 1.000000 0.000000
vt 1.000000 1.000000
vt 0.000000 1.000000
vt 0.000000 0.000000
vt 1.000000 0.000000
vt 1.000000 1.000000
vt 0.000000 1.000000
vt 0.000000 0.000000
vt 1.000000 0.000000
vt 1.000000 1.000000
vt 0.000000 1.000000
vt 0.000000 0.000000
vt 1.000000 0.000000
vt 1.000000 1.000000
vt 0.000000 1.000000
vt 1.000000 0.000000
vt 1.000000 1.000000
vt 0.000000 1.000000
vt 1.000000 0.000000
vt 1.000000 1.000000
vt 0.000000 1.000000
vt 0.000000 0.000000
vt 1.000000 0.000000
vt 1.000000 1.000000
vt 0.000000 0.000000
vt 1.000000 0.000000
vt 1.000000 1.000000
vt 0.000000 1.000000
vt 1.000000 0.000000
vt 1.000000 1.000000
vt 0.000000 1.000000
vt 1.000000 0.000000
vt 1.000000 1.000000
vt 1.000000 0.000000
vt 1.000000 1.000000
vt 0.000000 0.000000
vt 1.000000 0.000000
vt 1.000000 1.000000
vt 1.000000 0.000000
vt 1.000000 1.000000
vt 1.000000 0.000000
vt 1.000000 1.000000
vt 1.000000 0.000000
vt 1.000000 1.000000
vt 1.000000 0.000000
vt 1.000000 1.000000
vt 0.068662 0.910524
vt 1.000000 1.000000
vt 0.068662 0.931338
vt 0.068662 0.908385
vt 1.000000 0.000000
vt 1.000000 0.000000
vt 1.000000 1.000000
vt 0.000000 0.000000
vt 1.000000 0.000000
vt 1.000000 1.000000
vt 0.000000 1.000000
vt 0.000000 0.000000
vt 1.000000 0.000000
vt 1.000000 1.000000
vt 0.000000 1.000000
vt 0.000000 0.000000
vt 1.000000 0.000000
vt 1.000000 1.000000
vt 0.000000 1.000000
vt 0.000000 0.000000
vt 1.000000 0.000000
vt 1.000000 1.000000
vt 0.000000 1.000000
vt 0.000000 0.000000
vt 1.000000 0.000000
vt 1.000000 1.000000
vt 0.000000 1.000000
vt 0.000000 0.000000
vt 1.000000 0.000000
vt 1.000000 1.000000
vt 0.000000 1.000000
vt 0.084817 0.915183
vt 0.084817 0.084817
vt 1.000000 0.000000
vt 1.000000 1.000000
vt 0.000000 1.000000
vt 0.000000 0.000000
vt 0.000000 1.000000
vt 0.000000 0.000000
vt 1.000000 0.000000
vt 1.000000 1.000000
vt 0.000000 1.000000
vt 0.000000 0.000000
vt 0.110357 0.931338
vt 0.110357 0.931338
vt 0.889643 0.931338
vt 0.889643 0.931338
vt 0.068662 0.514406
vt 0.068662 0.889829
vt 0.068662 0.897904
vt 0.931338 0.897904
vt 0.931338 0.889829
vt 0.931338 0.514406
vt 0.068662 0.117557
vt 0.068662 0.110494
vt 1.000000 0.000000
vt 0.000000 0.000000
vt 1.000000 0.000000
vt 1.000000 1.000000
vt 1.000000 1.000000
vt 0.889643 0.068662
vt 0.889643 0.068662
vt 0.110357 0.068662
vt 0.110357 0.068662
vt 0.931338 0.117557
vt 0.931338 0.110494
vn -0.4664 0.0000 -0.8846
vn 0.0000 -1.0000 -0.0000
vn -0.8795 0.1073 0.4637
vn 0.3201 0.7273 0.6071
vn 0.1843 0.9186 0.3496
vn 0.3496 0.9186 -0.1843
vn -0.1843 0.9186 -0.3496
vn -0.3496 0.9186 0.1843
vn 0.4664 -0.0000 0.8846
vn 0.0000 1.0000 -0.0000
vn -0.8846 0.0000 0.4664
vn 0.8846 -0.0000 -0.4664
vn -0.3261 0.7150 -0.6184
vn 0.1924 -0.9110 0.3648
vn 0.8060 -0.2192 -0.5498
vn -0.9090 -0.2192 0.3545
vn 0.9106 -0.2186 -0.3508
vn -0.1924 -0.9110 -0.3648
vn -0.8039 -0.2186 0.5532
vn 0.0949 0.9942 -0.0501
vn -0.4699 -0.0405 -0.8818
vn -0.0949 -0.9942 0.0501
vn 0.4622 -0.0405 0.8859
vn 0.4637 0.1073 0.8795
vn 0.8795 0.1073 -0.4637
vn -0.4637 0.1073 -0.8795
usemtl facade
s 1
f 40/1/1 58/2/1 56/3/1 38/4/1
f 42/5/2 60/6/2 58/7/2 40/8/2
f 41/9/2 59/10/2 60/11/2 42/12/2
f 29/13/3 30/14/3 32/15/3 31/16/3
f 20/17/4 24/18/4 23/19/4 19/20/4
f 5/21/2 3/22/2 1/23/2 7/24/2
f 4/25/5 10/26/5 9/27/5 2/28/5
f 6/29/6 11/30/6 10/26/6 4/25/6
f 8/31/7 12/32/7 11/30/7 6/29/7
f 2/28/8 9/27/8 12/32/8 8/31/8
f 39/33/9 57/34/9 59/35/9 41/36/9
f 44/37/10 62/38/10 61/39/10 43/40/10
f 46/41/11 64/42/11 62/43/11 44/44/11
f 45/45/2 63/46/2 64/47/2 46/48/2
f 43/49/12 61/50/12 63/51/12 45/52/12
f 48/53/10 66/54/10 65/55/10 47/56/10
f 24/18/13 21/57/13 22/58/13 23/19/13
f 14/59/14 20/60/14 19/61/14 13/62/14
f 18/63/15 24/64/15 20/65/15 14/66/15
f 13/67/16 19/68/16 23/69/16 17/70/16
f 15/71/17 21/57/17 24/18/17 18/72/17
f 16/73/18 22/74/18 21/57/18 15/71/18
f 17/75/19 23/76/19 22/77/19 16/78/19
f 50/79/12 68/80/12 66/81/12 48/82/12
f 49/83/2 67/84/2 68/85/2 50/86/2
f 47/87/11 65/88/11 67/89/11 49/90/11
f 25/91/20 29/92/20 31/93/20 27/94/20
f 26/95/21 30/96/21 29/97/21 25/98/21
f 28/99/22 32/100/22 30/101/22 26/102/22
f 27/103/23 31/104/23 32/105/23 28/106/23
f 11/107/12 34/108/12 33/109/12 10/110/12
f 15/111/12 36/112/12 34/113/12 11/114/12
f 18/63/12 37/115/12 36/116/12 15/117/12
f 14/59/12 35/118/12 37/119/12 18/120/12
f 10/121/12 33/122/12 35/123/12 14/66/12
f 9/124/11 38/125/11 39/126/11 12/127/11
f 13/67/11 40/128/11 38/129/11 9/130/11
f 17/75/11 42/131/11 40/132/11 13/62/11
f 16/73/11 41/133/11 42/134/11 17/70/11
f 12/135/11 39/136/11 41/137/11 16/78/11
f 10/121/9 44/138/9 43/139/9 9/130/9
f 14/59/9 46/140/9 44/141/9 10/110/9
f 13/67/9 45/142/9 46/143/9 14/66/9
f 9/124/9 43/144/9 45/145/9 13/62/9
f 12/32/1 48/146/1 47/147/1 11/114/1
f 16/148/1 50/149/1 48/146/1 12/32/1
f 15/111/1 49/150/1 50/149/1 16/148/1
f 11/107/1 47/151/1 49/152/1 15/117/1
f 34/153/10 52/154/10 51/155/10 33/156/10
f 36/157/9 54/158/9 52/159/9 34/160/9
f 37/161/2 55/162/2 54/163/2 36/164/2
f 35/165/2 53/166/2 55/167/2 37/168/2
f 33/169/1 51/170/1 53/171/1 35/172/1
f 38/173/10 56/174/10 57/175/10 39/176/10
usemtl facade1
f 1/23/3 25/177/3 27/178/3 7/24/3
f 3/179/24 4/180/24 2/181/24 1/182/24
f 5/21/25 6/29/25 4/183/25 3/184/25
f 7/185/26 8/186/26 6/187/26 5/188/26
f 66/189/1 68/190/1 67/191/1 65/192/1
f 60/193/11 59/194/11 57/195/11
f 52/196/12 54/197/12 55/198/12
f 58/199/11 60/193/11 57/195/11 56/200/11
f 2/28/3 26/201/3 25/177/3 1/23/3
f 8/202/3 28/203/3 26/204/3 2/181/3
f 7/24/3 27/178/3 28/205/3 8/31/3
f 62/206/9 64/207/9 63/208/9 61/209/9
f 52/196/12 55/198/12 53/210/12 51/211/12
o propeller_Untitled
v -0.075246 0.818645 -0.200162
v -0.085570 0.859233 -0.162266
v -0.073380 0.859566 -0.139149
v 0.062916 0.877374 0.119338
v -0.133007 0.936678 -0.309705
v -0.071627 0.843603 -0.193298
v -0.061857 0.859233 -0.174769
v -0.085997 1.011884 -0.220551
v -0.077287 1.125935 -0.204034
v -0.037408 1.127023 -0.128403
v -0.027347 1.013485 -0.109322
v -0.049667 0.859566 -0.151652
v -0.072903 0.779134 -0.138243
v -0.155300 0.697498 -0.294508
v -0.095045 0.793893 -0.180235
v -0.096729 0.825406 -0.183428
v -0.173393 0.823314 -0.328823
v -0.157888 0.930242 -0.299416
v -0.081881 0.856774 -0.155270
v -0.054276 1.013877 -0.102917
v -0.077039 0.856906 -0.146086
v 0.014217 0.547307 -0.030495
v -0.001929 0.934499 -0.003641
v -0.049190 0.779134 -0.150746
v -0.061379 0.778801 -0.173864
v -0.083699 0.624882 -0.216193
v 0.014841 0.828452 0.028164
v -0.154574 0.592964 -0.350608
v -0.061824 0.826359 -0.117231
v -0.071332 0.793893 -0.192739
v -0.098959 0.818645 -0.187659
v -0.174134 0.816593 -0.330227
v -0.070672 0.785895 -0.134013
v -0.210194 0.951248 -0.398615
v -0.087402 0.785438 -0.165741
v -0.095340 0.843603 -0.180795
v -0.152806 0.693128 -0.289779
v -0.109710 1.011884 -0.208048
v -0.101000 1.125935 -0.191530
v -0.061122 1.127023 -0.115900
v -0.051060 1.013485 -0.096819
v -0.091356 0.791434 -0.173240
v -0.063428 0.844474 -0.120273
v -0.003173 0.940869 -0.006000
v 0.050110 0.958353 0.095052
v 0.015661 0.821773 0.029718
v -0.063133 0.794764 -0.119714
v -0.059514 0.819722 -0.112850
v -0.001753 0.701689 -0.003307
v -0.085092 0.778801 -0.161360
v 0.022468 0.598444 0.042629
v -0.009496 0.547307 -0.017992
v -0.048763 0.626483 -0.092461
v -0.095291 0.835322 -0.180702
v -0.106500 1.012452 -0.201960
v -0.107412 0.624882 -0.203690
v -0.145726 0.543589 -0.276352
v -0.178287 0.592964 -0.338104
v -0.063379 0.836193 -0.120180
v -0.066791 0.792105 -0.126651
v -0.004194 0.697184 -0.007937
v -0.150421 0.816593 -0.342730
v -0.198321 0.869596 -0.433574
v -0.186480 0.951248 -0.411118
v -0.046053 0.630218 -0.087323
v -0.110165 0.628468 -0.208910
v -0.218272 0.872973 -0.413935
v -0.207988 0.943893 -0.394431
v -0.098340 1.119307 -0.186484
v -0.063702 1.120252 -0.120794
v 0.047992 0.950880 0.091035
v 0.059115 0.880544 0.112130
v -0.039715 0.844474 -0.132777
v 0.020540 0.940869 -0.018504
v 0.073823 0.958353 0.082548
v 0.086629 0.877374 0.106835
v 0.039374 0.821773 0.017215
v -0.035800 0.819722 -0.125354
v -0.039420 0.794764 -0.132217
v 0.021960 0.701689 -0.015810
v 0.046181 0.598444 0.030125
v 0.018499 0.600453 0.035101
v -0.025049 0.626483 -0.104964
v -0.009264 0.556037 -0.017552
v -0.146061 0.552304 -0.276988
v -0.174343 0.595189 -0.330624
v -0.122013 0.543589 -0.288856
v -0.084951 0.835604 -0.161093
v -0.131587 0.697498 -0.307012
v -0.075153 0.835871 -0.142510
v -0.079115 0.798697 -0.150024
v -0.088286 0.812605 -0.167418
v -0.222034 0.869596 -0.421070
v -0.070641 0.812254 -0.133952
v -0.156720 0.936678 -0.297202
vt 0.000000 1.000000
vt 0.000000 1.000000
vt 0.000000 1.000000
vt 0.000000 1.000000
vt 0.000000 1.000000
vt 0.000000 1.000000
vt 0.000000 1.000000
vt 0.000000 1.000000
vt 0.000000 1.000000
vt 0.000000 1.000000
vt 0.000000 1.000000
vt 0.000000 1.000000
vt 0.000000 1.000000
vt 0.000000 1.000000
vt 0.000000 1.000000
vt 0.000000 1.000000
vt 0.000000 1.000000
vt 0.000000 1.000000
vt 0.000000 1.000000
vt 0.000000 1.000000
vt 0.000000 1.000000
vt 0.000000 1.000000
vt 0.000000 1.000000
vt 0.000000 1.000000
vt 0.000000 1.000000
vt 0.000000 1.000000
vt 0.000000 1.000000
vt 0.000000 1.000000
vt 0.000000 1.000000
vt 0.000000 1.000000
vt 0.000000 1.000000
vt 0.000000 1.000000
vt 0.000000 1.000000
vt 0.000000 1.000000
vt 0.000000 1.000000
vt 0.000000 1.000000
vt 0.000000 1.000000
vt 0.000000 1.000000
vt 0.000000 1.000000
vt 0.000000 1.000000
vt 0.000000 0.000000
vt 0.048466 0.000000
vt 0.048466 1.000000
vt 0.000000 1.000000
vt 0.083215 0.000000
vt 0.083215 1.000000
vt 0.108926 0.000000
vt 0.108926 1.000000
vt 0.143676 0.000000
vt 0.143676 1.000000
vt 0.192141 0.000000
vt 0.192141 1.000000
vt 0.200000 0.000000
vt 0.200000 1.000000
vt 0.248466 0.000000
vt 0.248466 1.000000
vt 0.283215 0.000000
vt 0.283215 1.000000
vt 0.308926 0.000000
vt 0.308926 1.000000
vt 0.343675 0.000000
vt 0.343675 1.000000
vt 0.392141 0.000000
vt 0.392141 1.000000
vt 0.400000 0.000000
vt 0.400000 1.000000
vt 0.448466 0.000000
vt 0.448466 1.000000
vt 0.483215 0.000000
vt 0.483215 1.000000
vt 0.508926 0.000000
vt 0.508926 1.000000
vt 0.543675 0.000000
vt 0.543675 1.000000
vt 0.592141 0.000000
vt 0.592141 1.000000
vt 0.600000 0.000000
vt 0.600000 1.000000
vt 0.648466 0.000000
vt 0.648466 1.000000
vt 0.683215 0.000000
vt 0.683215 1.000000
vt 0.708926 0.000000
vt 0.708926 1.000000
vt 0.743676 0.000000
vt 0.743676 1.000000
vt 0.792141 0.000000
vt 0.792141 1.000000
vt 0.800000 0.000000
vt 0.800000 1.000000
vt 0.848466 0.000000
vt 0.848466 1.000000
vt 0.883215 0.000000
vt 0.883215 1.000000
vt 0.908926 0.000000
vt 0.908926 1.000000
vt 0.943676 0.000000
vt 0.943676 1.000000
vt 0.992141 0.000000
vt 0.992141 1.000000
vt 1.000000 0.000000
vt 1.000000 1.000000
vt 0.000000 1.000000
vt 0.000000 1.000000
vt 0.000000 1.000000
vt 0.000000 1.000000
vt 0.000000 1.000000
vt 0.000000 1.000000
vt 0.000000 1.000000
vt 0.000000 1.000000
vt 0.000000 1.000000
vt 0.000000 1.000000
vt 0.000000 1.000000
vt 0.000000 1.000000
vt 0.000000 1.000000
vt 0.000000 1.000000
vt 0.000000 1.000000
vt 0.000000 1.000000
vt 0.000000 1.000000
vt 0.000000 1.000000
vt 0.000000 1.000000
vt 0.000000 1.000000
vt 0.000000 1.000000
vt 0.000000 1.000000
vt 0.000000 1.000000
vt 0.000000 1.000000
vt 0.000000 1.000000
vt 0.000000 1.000000
vt 0.000000 1.000000
vt 0.000000 1.000000
vt 0.000000 1.000000
vt 0.000000 1.000000
vt 0.000000 1.000000
vt 0.000000 1.000000
vt 0.000000 1.000000
vt 0.000000 1.000000
vt 0.000000 1.000000
vt 0.000000 1.000000
vt 0.000000 1.000000
vt 0.000000 1.000000
vt 0.000000 1.000000
vt 0.000000 1.000000
vt 0.000000 1.000000
vt 0.000000 1.000000
vt 0.000000 1.000000
vt 0.000000 1.000000
vt 0.000000 1.000000
vt 0.000000 1.000000
vt 0.000000 1.000000
vt 0.000000 1.000000
vt 0.000000 1.000000
vt 0.000000 1.000000
vt 0.000000 1.000000
vt 0.000000 1.000000
vt 0.000000 1.000000
vt 0.000000 1.000000
vn -0.8846 -0.0000 0.4664
vn 0.0059 -0.9999 0.0113
vn -0.2139 -0.8886 -0.4057
vn -0.4454 0.2969 -0.8447
vn 0.0588 0.9920 0.1115
vn 0.2693 0.8164 0.5108
vn -0.2789 0.8015 -0.5290
vn -0.4417 -0.3211 -0.8377
vn -0.4603 0.1616 -0.8729
vn -0.0059 0.9999 -0.0113
vn 0.4582 0.1866 0.8690
vn 0.4454 -0.2969 0.8447
vn -0.0706 0.9885 -0.1338
vn 0.4417 0.3211 0.8377
vn 0.2244 -0.8767 0.4256
vn 0.4167 0.4493 0.7902
vn 0.2789 -0.8015 0.5290
vn -0.3195 -0.7285 -0.6060
vn 0.3281 -0.7108 0.6222
vn -0.2693 -0.8164 -0.5108
vn -0.4219 0.4265 -0.8001
vn 0.8846 -0.0000 -0.4664
usemtl ground
s 1
f 104/212/27 122/213/27 87/214/27 70/215/27
f 163/216/27 86/217/27 122/213/27 104/212/27
f 99/218/27 84/219/27 85/220/27 100/221/27
f 115/222/27 128/223/27 129/224/27 117/225/27
f 83/226/27 110/227/27 84/219/27 99/218/27
f 82/228/27 105/229/27 110/227/27 83/226/27
f 118/230/27 103/231/27 134/232/27 124/233/27
f 81/234/27 101/235/27 103/231/27 118/230/27
f 121/236/27 133/237/27 101/235/27 81/234/27
f 116/238/27 97/239/27 128/223/27 115/222/27
f 114/240/27 95/241/27 97/239/27 116/238/27
f 111/242/27 127/243/27 91/244/27 112/245/27
f 71/246/27 89/247/27 127/243/27 111/242/27
f 109/248/27 88/249/27 89/247/27 71/246/27
f 70/215/27 87/214/27 123/250/27 106/251/27
usemtl facade1
f 99/252/28 100/253/28 130/254/28 69/255/28
f 100/253/29 161/256/29 131/257/29 130/254/29
f 161/256/30 102/258/30 132/259/30 131/257/30
f 102/258/31 163/260/31 73/261/31 132/259/31
f 163/260/32 104/262/32 74/263/32 73/261/32
f 104/262/33 70/264/33 75/265/33 74/263/33
f 70/264/34 106/266/34 76/267/34 75/265/34
f 106/266/35 107/268/35 77/269/35 76/267/35
f 107/268/36 108/270/36 78/271/36 77/269/36
f 108/270/37 109/272/37 79/273/37 78/271/37
f 109/272/38 71/274/38 80/275/38 79/273/38
f 71/274/32 111/276/32 141/277/32 80/275/32
f 111/276/33 112/278/33 142/279/33 141/277/33
f 112/278/39 113/280/39 143/281/39 142/279/39
f 113/280/40 72/282/40 144/283/40 143/281/40
f 72/282/41 114/284/41 145/285/41 144/283/41
f 114/284/28 116/286/28 146/287/28 145/285/28
f 116/286/38 115/288/38 147/289/38 146/287/38
f 115/288/32 117/290/32 148/291/32 147/289/32
f 117/290/42 119/292/42 149/293/42 148/291/42
f 119/292/43 120/294/43 90/295/43 149/293/43
f 120/294/44 121/296/44 151/297/44 90/295/44
f 121/296/34 81/298/34 92/299/34 151/297/34
f 81/298/28 118/300/28 93/301/28 92/299/28
f 118/300/38 124/302/38 94/303/38 93/301/38
f 124/302/45 125/304/45 155/305/45 94/303/45
f 125/304/46 126/306/46 96/307/46 155/305/46
f 126/306/47 82/308/47 157/309/47 96/307/47
f 82/308/33 83/310/33 98/311/33 157/309/33
f 83/310/34 99/312/34 69/313/34 98/311/34
f 75/314/48 141/315/48 147/316/48 98/317/48
f 130/318/48 131/319/48 132/320/48 73/321/48
f 74/322/48 69/255/48 130/318/48 73/321/48
f 75/314/48 98/317/48 69/255/48 74/322/48
f 93/323/48 94/324/48 157/325/48 98/317/48
f 147/316/48 92/326/48 93/323/48 98/317/48
f 155/327/48 96/328/48 157/325/48 94/324/48
f 141/315/48 142/329/48 145/330/48 146/331/48
f 148/332/48 151/333/48 92/326/48 147/316/48
f 148/332/48 149/334/48 90/335/48 151/333/48
f 141/315/48 146/331/48 147/316/48
f 143/336/48 144/337/48 145/330/48 142/329/48
f 77/338/48 78/339/48 79/340/48 76/341/48
f 75/314/48 80/342/48 141/315/48
f 79/340/48 80/342/48 75/314/48 76/341/48
f 102/343/27 136/344/27 86/217/27 163/216/27
f 161/345/27 135/346/27 136/344/27 102/343/27
f 100/221/27 85/220/27 135/346/27 161/345/27
f 101/235/27 133/237/27 129/224/27 128/223/27
f 97/239/27 95/241/27 91/244/27 127/243/27
f 162/347/27 128/223/27 97/239/27
f 110/227/27 103/231/27 159/348/27 160/349/27
f 105/229/27 134/232/27 103/231/27 110/227/27
f 105/229/27 154/350/27 153/351/27 134/232/27
f 122/213/27 86/217/27 85/220/27 84/219/27
f 89/247/27 88/249/27 123/250/27 87/214/27
f 86/217/27 136/344/27 135/346/27 85/220/27
f 126/352/27 154/350/27 105/229/27 82/228/27
f 125/353/27 153/351/27 154/350/27 126/352/27
f 97/239/27 127/243/27 158/354/27 162/347/27
f 159/348/27 103/231/27 101/235/27
f 156/355/27 87/214/27 122/213/27
f 156/355/27 160/349/27 159/348/27
f 138/356/27 137/357/27 123/250/27 88/249/27
f 156/355/27 122/213/27 84/219/27 160/349/27
f 110/227/27 160/349/27 84/219/27
f 162/347/27 159/348/27 101/235/27 128/223/27
f 158/354/27 127/243/27 89/247/27
f 89/247/27 87/214/27 156/355/27 158/354/27
f 150/358/27 129/224/27 133/237/27 152/359/27
f 140/360/27 139/361/27 91/244/27 95/241/27
f 124/233/27 134/232/27 153/351/27 125/353/27
f 120/362/27 152/359/27 133/237/27 121/236/27
f 119/363/27 150/358/27 152/359/27 120/362/27
f 117/225/27 129/224/27 150/358/27 119/363/27
f 159/348/27 162/347/27 158/354/27 156/355/27
f 72/364/27 140/360/27 95/241/27 114/240/27
f 113/365/27 139/361/27 140/360/27 72/364/27
f 112/245/27 91/244/27 139/361/27 113/365/27
f 108/366/27 138/356/27 88/249/27 109/248/27
f 107/367/27 137/357/27 138/356/27 108/366/27
f 106/251/27 123/250/27 137/357/27 107/367/27
